name 900006_30rea_lsw
datacolumns 54
datarows 4
range 1.2979999999999967 1.3249999999999964
cursor 1.0 1.0 0.0
keys m_key
wrap
enforce_loops no
enforce_constraints no
calc_derivatives 0.009000
event_color 1.000000 0.000000 1.000000
endheader

time	calcn_r_tx	calcn_r_ty	calcn_r_tz	calcn_r_r1	calcn_r_r2	calcn_r_r3	calcn_l_tx	calcn_l_ty	calcn_l_tz	calcn_l_r1	calcn_l_r2	calcn_l_r3	pelvis_tz	pelvis_tx	pelvis_ty	pelvis_tilt	pelvis_list	pelvis_rotation	hip_flexion_r	hip_adduction_r	hip_rotation_r	knee_angle_r	ankle_angle_r	subtalar_angle_r	mtp_angle_r	hip_flexion_l	hip_adduction_l	hip_rotation_l	knee_angle_l	ankle_angle_l	subtalar_angle_l	mtp_angle_l	lumbar_extension	lumbar_bending	lumbar_rotation	ground_force_px	ground_force_py	ground_force_pz	ground_force_vx	ground_force_vy	ground_force_vz	ground_force_px	ground_force_py	ground_force_pz	ground_force_vx	ground_force_vy	ground_force_vz	ground_torque_x	ground_torque_y	ground_torque_z	ground_torque_x	ground_torque_y	ground_torque_z	
      1.2979999999999967	      1.2993251466094771	      0.0443368392195356	     -0.1598448696998213	     -0.0753415282791311	     -5.5269731658465346	     -6.6433256378894132	      1.6248160971366548	      0.0510311761776300	     -0.3002646898821943	     -1.5685978369195908	      4.7478236349357239	      5.3860779638668941	     -0.2212703530532240	      1.5725194885034282	      0.8211417203543935	     -0.5604161480390676	     -0.1554111986853555	     -0.1234582071406052	     -8.7174764557899884	      2.0127478043939289	     -3.6994209838935288	     -6.5733486627599600	      9.5295299939465483	      0.0000000000000000	      0.0000000000000000	     27.1089069049914820	     -0.8039478044482578	     -5.8172707756986615	    -25.2910054981286690	      4.1284643130885978	      0.0000000000000000	      0.0000000000000000	    -12.9747324425989970	      1.1521165134865154	      3.1961032822562929	      1.4781661233371932	      0.0000000000000000	     -0.1560601733616970	     11.2006153819449850	    391.8377271075283900	    -22.1694696422524270	      0.9857449770303082	      0.0000000000000000	     -0.2345834111044972	      0.0000000000004591	     -0.0000000000006590	      0.0000000000002831	      0.0000000000000000	      1.7706241984243107	      0.0000000000000000	      0.0000000000000000	      0.0000000000000127	      0.0000000000000000	
      1.3069999999999966	      1.2996340722652147	      0.0456642125851178	     -0.1605556406007155	     -0.2449533679250220	     -5.9090421586729329	     -7.3635778069657309	      1.6590466882440362	      0.0488608625081801	     -0.3043226836068588	     -1.3511107549156627	      4.3388891198760708	      7.6619567517114611	     -0.2210966701338396	      1.5847070287030185	      0.8188777056604333	     -0.6949860136041355	     -0.3050970371172011	     -0.3948646313451009	     -9.4893226295315820	      2.1280696443621343	     -3.7522029199157423	     -6.6330445668871691	      9.7897428959001260	      0.0000000000000000	      0.0000000000000000	     27.4552438435753570	     -1.0864661621407643	     -5.3341467237976241	    -22.3218188063601170	      3.2156852478775311	      0.0000000000000000	      0.0000000000000000	    -12.7073653636325100	      1.0907627842223997	      3.6495326633143685	      1.4789464062794790	      0.0000000000000000	     -0.1562819675596945	     15.1778879043654840	    401.7103759299850500	    -21.8498917879288080	      0.9911819855574710	      0.0000000000000000	     -0.2342061245938513	      0.0000000000004562	      0.0000000000015453	     -0.0000000000003290	      0.0000000000000000	      1.9085815839908176	      0.0000000000000000	      0.0000000000000000	     -0.0000000000000048	      0.0000000000000000	
      1.3159999999999965	      1.3000998362274097	      0.0471768110207083	     -0.1612350275513696	     -0.4318137119792991	     -6.2910051118358110	     -8.1598210819650046	      1.6920635705952416	      0.0473823967360066	     -0.3084116113820722	     -1.0721784355689281	      3.8065565245452744	      9.8594843272468555	     -0.2209481883990997	      1.5970928469749344	      0.8165040627331071	     -0.8305221891708324	     -0.4754105133976119	     -0.6893739619590001	    -10.2325431093214050	      2.2428166918034416	     -3.7895161489276838	     -6.7589053865744564	     10.0110765893527450	      0.0000000000000000	      0.0000000000000000	     27.7196212671228320	     -1.4022705507639968	     -4.7403904213265786	    -19.4262944109299700	      2.3826186992359331	      0.0000000000000000	      0.0000000000000000	    -12.3954468152736940	      1.0556824606196313	      4.1091928877438786	      1.4795538309509129	      0.0000000000000000	     -0.1564901064684104	     19.4190662783869390	    412.8902623282439800	    -21.4798789022943100	      0.9964560956546215	      0.0000000000000000	     -0.2339085994959359	     -0.0000000000001086	     -0.0000000000000577	     -0.0000000000000077	      0.0000000000000000	      2.0462605330110244	      0.0000000000000000	      0.0000000000000000	     -0.0000000000000013	      0.0000000000000000	
      1.3249999999999964	      1.3007285136348896	      0.0488966518789127	     -0.1618887080347095	     -0.6432435643500244	     -6.6863568320598095	     -9.0283680333037051	      1.7236082979472740	      0.0464945928216237	     -0.3123967247928102	     -0.7332052064864046	      3.1658788274153986	     11.9666933397046530	     -0.2208397427703275	      1.6096727388198326	      0.8140549004853248	     -0.9601463848136451	     -0.6581980185504983	     -0.9974149777931236	    -10.9486819009374510	      2.3468166537698596	     -3.8351373994097133	     -6.9648608920472590	     10.2073197095662010	      0.0000000000000000	      0.0000000000000000	     27.9202115676363470	     -1.7432383943006051	     -4.0555607501001107	    -16.6899266508903280	      1.6769761519037114	      0.0000000000000000	      0.0000000000000000	    -12.0504736162435280	      1.0389093317299145	      4.5630531835026815	      1.4800422489980094	      0.0000000000000000	     -0.1566547371470429	     24.0162237088367010	    425.4366157502400900	    -21.1649264729116950	      1.0015042229699136	      0.0000000000000000	     -0.2337217791020097	     -0.0000000000000533	     -0.0000000000002107	      0.0000000000000468	      0.0000000000000000	      2.1712147032303974	      0.0000000000000000	      0.0000000000000000	      0.0000000000000008	      0.0000000000000000	
